<svg width="16" height="16" viewBox="0 0 16 16" fill="none" xmlns="http://www.w3.org/2000/svg">
<path d="M8.07839 3.00043C11.3663 3.03817 14.0832 5.44818 14.5993 8.599L14.6112 8.67413L14.6144 8.69965C14.6409 8.96285 14.4565 9.20342 14.192 9.24365C13.9276 9.28388 13.68 9.10902 13.627 8.84985L13.6225 8.82452L13.6124 8.76062C13.1737 6.08175 10.8621 4.03247 8.06667 4.00037L8.00002 4C5.15251 4 2.79292 6.09308 2.37746 8.82452C2.33593 9.09752 2.08094 9.28518 1.80794 9.24365C1.53494 9.20212 1.34729 8.94713 1.38881 8.67413C1.87748 5.46147 4.65087 3 8.00002 3L8.07839 3.00043Z" fill="white"/>
<path d="M10 8C10 6.89543 9.10459 6 8.00002 6C6.89545 6 6.00002 6.89543 6.00002 8C6.00002 9.10457 6.89545 10 8.00002 10C9.10459 10 10 9.10457 10 8ZM11 8C11 9.65685 9.65687 11 8.00002 11C6.34316 11 5.00002 9.65685 5.00002 8C5.00002 6.34315 6.34316 5 8.00002 5C9.65687 5 11 6.34315 11 8Z" fill="white"/>
</svg>
