<svg width="16" height="16" viewBox="0 0 16 16" fill="none" xmlns="http://www.w3.org/2000/svg">
<g clip-path="url(#clip0_278_6053)">
<path d="M8.43578 2.8689C8.00873 1.44254 5.98887 1.44253 5.56182 2.8689L4.51012 6.38184L1.1087 7.40436L1.07543 7.41473C-0.323854 7.8667 -0.301184 9.87129 1.1253 10.2822L4.50909 11.257L5.55895 14.8527C5.97925 16.2921 8.01841 16.2921 8.43871 14.8527L9.48864 11.257L12.8724 10.2822C14.3101 9.86806 14.3218 7.83508 12.889 7.40436L9.4876 6.38184L8.43578 2.8689ZM6.51983 3.1557C6.66219 2.68027 7.33548 2.68027 7.47784 3.1557L8.6068 6.92664C8.65501 7.08765 8.78087 7.21369 8.94183 7.26208L12.6011 8.362C13.0787 8.50556 13.0748 9.18321 12.5956 9.32129L8.94738 10.3723L8.93206 10.3769C8.77477 10.4277 8.65235 10.5533 8.60583 10.7126L7.47881 14.5724C7.33871 15.0522 6.65895 15.0522 6.51885 14.5724L5.39184 10.7126L5.38708 10.6973C5.33571 10.5402 5.20978 10.4182 5.05029 10.3723L1.40209 9.32129C0.930369 9.18537 0.919227 8.52663 1.37457 8.36914L1.3966 8.362L5.05584 7.26208C5.21679 7.21369 5.34266 7.08765 5.39086 6.92664L6.51983 3.1557Z" fill="white"/>
<path d="M12.7271 2.22472L13.2488 0.5L13.7706 2.22472L15.4988 2.73887L13.7706 3.2316L13.2488 5L12.7271 3.2316L10.9988 2.73887L12.7271 2.22472Z" fill="white"/>
<path d="M13.2488 0C13.4692 -1.35127e-10 13.6636 0.144287 13.7274 0.355225L14.1711 1.8222L15.6414 2.25964L15.6612 2.26593C15.8634 2.33528 16.0001 2.52637 15.9988 2.7417C15.9976 2.96398 15.8497 3.15878 15.6359 3.21973L14.1722 3.63696L13.7284 5.14148C13.6657 5.35407 13.4705 5.5 13.2488 5.5C13.0272 5.5 12.832 5.35407 12.7693 5.14148L12.3254 3.63696L10.8617 3.21973C10.648 3.15878 10.5001 2.96398 10.4988 2.7417C10.4976 2.51943 10.6432 2.32303 10.8563 2.25964L12.3265 1.8222L12.7703 0.355225L12.7766 0.335632C12.8462 0.1354 13.0353 1.35188e-08 13.2488 0ZM13.2057 2.36951C13.157 2.53038 13.0308 2.65605 12.8697 2.70398L12.7867 2.72864L12.8642 2.75073L12.8795 2.75537C13.0369 2.80574 13.1597 2.9309 13.2067 3.09009L13.2488 3.23303L13.291 3.09009L13.2958 3.07483C13.3476 2.91787 13.4739 2.79624 13.6335 2.75073L13.7109 2.72864L13.628 2.70398C13.4669 2.65605 13.3407 2.53038 13.292 2.36951L13.2488 2.22681L13.2057 2.36951Z" fill="white"/>
</g>
<defs>
<clipPath id="clip0_278_6053">
<rect width="16" height="16" fill="white"/>
</clipPath>
</defs>
</svg>
