<svg width="16" height="16" viewBox="0 0 16 16" fill="none" xmlns="http://www.w3.org/2000/svg">
<path d="M8.5 13L8.49933 13.0258C8.48592 13.2899 8.2675 13.5 8 13.5C7.7325 13.5 7.51408 13.2899 7.50067 13.0258L7.5 13L7.5 3C7.5 2.72386 7.72386 2.5 8 2.5C8.27614 2.5 8.5 2.72386 8.5 3L8.5 13Z" fill="white"/>
<path d="M3 8.5L2.97424 8.49933C2.71007 8.48592 2.5 8.2675 2.5 8C2.5 7.7325 2.71007 7.51408 2.97424 7.50067L3 7.5L13 7.5C13.2761 7.5 13.5 7.72386 13.5 8C13.5 8.27614 13.2761 8.5 13 8.5L3 8.5Z" fill="white"/>
</svg>
