<svg width="16" height="16" viewBox="0 0 16 16" fill="none" xmlns="http://www.w3.org/2000/svg">
<g clip-path="url(#clip0_278_6212)">
<path d="M12 5.03125V2.5C12 1.94772 11.5523 1.5 11 1.5H4.93752C4.38523 1.5 3.93752 1.94772 3.93752 2.5V6.46875C3.93752 6.74489 3.71366 6.96875 3.43752 6.96875C3.16137 6.96875 2.93752 6.74489 2.93752 6.46875V2.5C2.93752 1.39543 3.83295 0.5 4.93752 0.5H11C12.1046 0.5 13 1.39543 13 2.5V5.03125C13 5.30739 12.7762 5.53125 12.5 5.53125C12.2239 5.53125 12 5.30739 12 5.03125Z" fill="white"/>
<path d="M14.5 10.25C14.5 8.73122 13.2688 7.5 11.75 7.5C10.2312 7.5 9.00002 8.73122 9.00002 10.25C9.00002 11.7688 10.2312 13 11.75 13C13.2688 13 14.5 11.7688 14.5 10.25ZM15.5 10.25C15.5 12.3211 13.8211 14 11.75 14C9.67895 14 8.00002 12.3211 8.00002 10.25C8.00002 8.17893 9.67895 6.5 11.75 6.5C13.8211 6.5 15.5 8.17893 15.5 10.25Z" fill="white"/>
<path d="M3.1274 8.44513C3.67619 7.33757 5.25391 7.33185 5.81068 8.43542L8.27718 13.3243C8.7805 14.322 8.05538 15.5 6.93794 15.5H2.04903C0.936332 15.5 0.21097 14.3311 0.704972 13.334L3.1274 8.44513ZM4.91786 8.88586C4.73227 8.51801 4.20638 8.51991 4.02345 8.8891L1.60103 13.778C1.43636 14.1104 1.67813 14.5 2.04903 14.5H6.93794C7.31042 14.5 7.55213 14.1073 7.38435 13.7748L4.91786 8.88586Z" fill="white"/>
</g>
<defs>
<clipPath id="clip0_278_6212">
<rect width="16" height="16" fill="white"/>
</clipPath>
</defs>
</svg>
