<svg width="16" height="16" viewBox="0 0 16 16" fill="none" xmlns="http://www.w3.org/2000/svg">
<path d="M14.5 4.5C14.5 3.67157 13.8284 3 13 3H3C2.17157 3 1.5 3.67157 1.5 4.5V11.5C1.5 12.3284 2.17157 13 3 13H13C13.8284 13 14.5 12.3284 14.5 11.5V4.5ZM15.5 11.5C15.5 12.8807 14.3807 14 13 14H3C1.61929 14 0.5 12.8807 0.5 11.5V4.5C0.5 3.11929 1.61929 2 3 2H13C14.3807 2 15.5 3.11929 15.5 4.5V11.5Z" fill="white"/>
<path d="M15 5C15.2761 5 15.5 5.22386 15.5 5.5C15.5 5.77614 15.2761 6 15 6H1C0.723858 6 0.5 5.77614 0.5 5.5C0.5 5.22386 0.723858 5 1 5H15Z" fill="white"/>
<path d="M15 6.98438L15.0258 6.98505C15.2899 6.99845 15.5 7.21687 15.5 7.48438C15.5 7.75188 15.2899 7.9703 15.0258 7.9837L15 7.98438H1C0.723858 7.98438 0.5 7.76052 0.5 7.48438C0.5 7.20823 0.723858 6.98438 1 6.98438H15Z" fill="white"/>
<path d="M7.375 9.5C7.65114 9.5 7.875 9.72386 7.875 10C7.875 10.2761 7.65114 10.5 7.375 10.5H3.5C3.22386 10.5 3 10.2761 3 10C3 9.72386 3.22386 9.5 3.5 9.5H7.375Z" fill="white"/>
</svg>
