<svg width="16" height="16" viewBox="0 0 16 16" fill="none" xmlns="http://www.w3.org/2000/svg">
<path d="M1.25 8C1.25 4.27208 4.27208 1.25 8 1.25L8.06586 1.25031C10.8277 1.2767 13.1918 2.96167 14.212 5.35522L14.2361 5.41235L14.2454 5.4364C14.3343 5.68551 14.2132 5.9633 13.9661 6.06592C13.7191 6.16853 13.4368 6.0583 13.3231 5.81946L13.3126 5.79596L13.2921 5.74725C12.4223 3.70657 10.4073 2.27269 8.05603 2.25024L8 2.25C4.82436 2.25 2.25 4.82436 2.25 8C2.25 11.1746 4.82271 13.7483 7.99695 13.7499C10.5348 13.7483 12.6892 12.1022 13.4498 9.81812L13.4586 9.79395C13.5548 9.54752 13.8284 9.41719 14.0822 9.50171C14.3442 9.58896 14.4859 9.8721 14.3986 10.1341L14.3774 10.1968C13.467 12.843 10.9575 14.7462 8.00171 14.7499L8 14.75L7.99683 14.7499C7.99558 14.7499 7.99434 14.75 7.9931 14.75C7.99236 14.75 7.99159 14.7499 7.99084 14.7499C4.26713 14.745 1.25 11.7249 1.25 8Z" fill="white"/>
<path d="M10.3438 5.15625L13.75 5.15625V1.75C13.75 1.47386 13.9739 1.25 14.25 1.25C14.5261 1.25 14.75 1.47386 14.75 1.75V6.15625H10.3438C10.0676 6.15625 9.84375 5.93239 9.84375 5.65625C9.84375 5.38011 10.0676 5.15625 10.3438 5.15625Z" fill="white"/>
</svg>
