<svg width="16" height="16" viewBox="0 0 16 16" fill="none" xmlns="http://www.w3.org/2000/svg">
<path d="M14 8C14 4.68629 11.3137 2 8 2C4.68629 2 2 4.68629 2 8C2 11.3137 4.68629 14 8 14C11.3137 14 14 11.3137 14 8ZM15 8C15 11.866 11.866 15 8 15C4.13401 15 1 11.866 1 8C1 4.13401 4.13401 1 8 1C11.866 1 15 4.13401 15 8Z" fill="white"/>
<path d="M10.125 8C10.125 6.25291 9.83807 4.69436 9.39252 3.59106C9.16921 3.0381 8.91589 2.62392 8.66016 2.35608C8.40561 2.08948 8.18246 2 8 2C7.81754 2 7.59439 2.08948 7.33984 2.35608C7.08411 2.62392 6.83079 3.0381 6.60748 3.59106C6.16192 4.69436 5.875 6.25291 5.875 8C5.875 9.74709 6.16192 11.3056 6.60748 12.4089C6.83079 12.9619 7.08411 13.3761 7.33984 13.6439C7.59439 13.9105 7.81754 14 8 14C8.18246 14 8.40561 13.9105 8.66016 13.6439C8.91589 13.3761 9.16921 12.9619 9.39252 12.4089C9.83807 11.3056 10.125 9.74709 10.125 8ZM11.125 8C11.125 9.84275 10.8243 11.5342 10.3198 12.7834C10.0681 13.4067 9.75578 13.9445 9.38342 14.3345C9.00987 14.7257 8.54241 15 8 15C7.45759 15 6.99013 14.7257 6.61658 14.3345C6.24423 13.9445 5.93195 13.4067 5.68024 12.7834C5.17574 11.5342 4.875 9.84275 4.875 8C4.875 6.15725 5.17574 4.46579 5.68024 3.21655C5.93195 2.59327 6.24423 2.05551 6.61658 1.66553C6.99013 1.27429 7.45759 1 8 1C8.54241 1 9.00987 1.27429 9.38342 1.66553C9.75578 2.05551 10.0681 2.59327 10.3198 3.21655C10.8243 4.46579 11.125 6.15725 11.125 8Z" fill="white"/>
<path d="M1.5 7.5L14.5 7.5C14.7761 7.5 15 7.72386 15 8C15 8.27614 14.7761 8.5 14.5 8.5L1.5 8.5C1.22386 8.5 1 8.27614 1 8C1 7.72386 1.22386 7.5 1.5 7.5Z" fill="white"/>
</svg>
