<svg width="16" height="16" viewBox="0 0 16 16" fill="none" xmlns="http://www.w3.org/2000/svg">
<g clip-path="url(#clip0_278_7151)">
<path d="M8.49248 8.6283C8.68898 8.4512 8.99197 8.45751 9.1809 8.64691C9.37591 8.84242 9.37555 9.15899 9.18004 9.354L6.29662 12.2302L9.18004 15.1063L9.1978 15.1249C9.37539 15.321 9.36982 15.624 9.1809 15.8134C8.99197 16.0028 8.68898 16.0091 8.49248 15.832L8.4738 15.8143L5.23558 12.5842C5.14155 12.4904 5.08867 12.363 5.08867 12.2302C5.08867 12.0973 5.14154 11.97 5.23558 11.8762L8.4738 8.646L8.49248 8.6283ZM11.8733 8.64691C12.0622 8.45751 12.3653 8.45119 12.5618 8.6283L12.5804 8.646L15.8187 11.8762C15.9127 11.97 15.9656 12.0973 15.9656 12.2302C15.9656 12.363 15.9127 12.4904 15.8187 12.5842L12.5804 15.8143L12.5618 15.832C12.3653 16.0091 12.0622 16.0028 11.8733 15.8134C11.6783 15.6179 11.6787 15.3013 11.8742 15.1063L14.7575 12.2302L11.8742 9.354L11.8564 9.33539C11.6788 9.13934 11.6844 8.83631 11.8733 8.64691Z" fill="white"/>
<path d="M5.13885 2.21484L2.2464 5.13336H5.13885V2.21484ZM10.9844 6.5V3C10.9844 2.18451 10.3336 1.52101 9.52307 1.50049L9.48438 1.5H6.13885V5.13336C6.13884 5.68563 5.69113 6.13336 5.13885 6.13336H1.54688V13C1.54688 13.8284 2.21845 14.5 3.04688 14.5H4.51562C4.79177 14.5 5.01562 14.7239 5.01562 15C5.01562 15.2761 4.79177 15.5 4.51562 15.5H3.04688C1.66616 15.5 0.546875 14.3807 0.546875 13V5.63336C0.546875 5.50154 0.598921 5.37501 0.691711 5.28137L5.28375 0.64801L5.3017 0.630737C5.3936 0.546819 5.51381 0.500002 5.63885 0.5H9.48438L9.54889 0.500793C10.8998 0.535013 11.9844 1.64086 11.9844 3V6.5C11.9844 6.77614 11.7605 7 11.4844 7C11.2082 7 10.9844 6.77614 10.9844 6.5Z" fill="white"/>
</g>
<defs>
<clipPath id="clip0_278_7151">
<rect width="16" height="16" fill="white"/>
</clipPath>
</defs>
</svg>
