<svg width="16" height="16" viewBox="0 0 16 16" fill="none" xmlns="http://www.w3.org/2000/svg">
<path d="M6.35243 1.6875C6.62856 1.68752 6.85243 1.91137 6.85243 2.1875C6.85243 2.46363 6.62856 2.68748 6.35243 2.6875C5.82589 2.6875 5.47621 2.77108 5.2422 2.88586C5.01775 2.99597 4.87761 3.14515 4.78084 3.32825C4.56306 3.7403 4.55116 4.32539 4.55116 5.09021C4.55116 5.77673 4.56305 6.643 4.20552 7.31946C4.01464 7.68062 3.72327 7.985 3.30049 8.19238C2.88727 8.39508 2.37397 8.49292 1.74989 8.49292C1.47375 8.49292 1.24989 8.26906 1.24989 7.99292C1.2499 7.71679 1.47376 7.49292 1.74989 7.49292C2.27644 7.49292 2.62612 7.40934 2.86012 7.29456C3.08456 7.18446 3.22466 7.03526 3.32143 6.85217C3.5392 6.44012 3.55116 5.85504 3.55116 5.09021C3.55116 4.40369 3.53922 3.53742 3.89675 2.86096C4.08763 2.4998 4.37901 2.19542 4.80177 1.98804C5.215 1.78534 5.72836 1.6875 6.35243 1.6875Z" fill="white"/>
<path d="M9.64749 1.6875C9.37136 1.68752 9.14749 1.91137 9.14749 2.1875C9.14749 2.46363 9.37136 2.68748 9.64749 2.6875C10.174 2.6875 10.5237 2.77108 10.7577 2.88586C10.9822 2.99597 11.1223 3.14515 11.2191 3.32825C11.4369 3.7403 11.4488 4.32539 11.4488 5.09021C11.4488 5.77673 11.4369 6.643 11.7944 7.31946C11.9853 7.68062 12.2767 7.985 12.6994 8.19238C13.1127 8.39508 13.626 8.49292 14.25 8.49292C14.5262 8.49292 14.75 8.26906 14.75 7.99292C14.75 7.71679 14.5262 7.49292 14.25 7.49292C13.7235 7.49292 13.3738 7.40934 13.1398 7.29456C12.9154 7.18446 12.7753 7.03526 12.6785 6.85217C12.4607 6.44012 12.4488 5.85504 12.4488 5.09021C12.4488 4.40369 12.4607 3.53742 12.1032 2.86096C11.9123 2.4998 11.6209 2.19542 11.1981 1.98804C10.7849 1.78534 10.2716 1.6875 9.64749 1.6875Z" fill="white"/>
<path d="M14.25 7.5C14.5262 7.50002 14.75 7.72387 14.75 8C14.75 8.27613 14.5262 8.49998 14.25 8.5C13.7235 8.5 13.3738 8.58358 13.1398 8.69836C12.9153 8.80847 12.7752 8.95765 12.6784 9.14075C12.4607 9.5528 12.4488 10.1379 12.4488 10.9027C12.4488 11.5892 12.4606 12.4555 12.1031 13.132C11.9122 13.4931 11.6209 13.7975 11.1981 14.0049C10.7849 14.2076 10.2716 14.3054 9.64749 14.3054C9.37135 14.3054 9.14749 14.0816 9.14749 13.8054C9.1475 13.5293 9.37135 13.3054 9.64749 13.3054C10.174 13.3054 10.5237 13.2218 10.7577 13.1071C10.9822 12.997 11.1223 12.8478 11.219 12.6647C11.4368 12.2526 11.4488 11.6675 11.4488 10.9027C11.4488 10.2162 11.4368 9.34992 11.7943 8.67346C11.9852 8.3123 12.2766 8.00792 12.6994 7.80054C13.1126 7.59784 13.626 7.5 14.25 7.5Z" fill="white"/>
<path d="M1.74976 7.49289C1.47363 7.49291 1.24976 7.71676 1.24976 7.99289C1.24976 8.26903 1.47363 8.49288 1.74976 8.49289C2.27578 8.49289 2.62485 8.57713 2.8584 8.69272C3.08248 8.80363 3.22312 8.95427 3.3205 9.14017C3.53929 9.55788 3.55103 10.1506 3.55103 10.9218C3.55103 11.615 3.53924 12.4868 3.89575 13.1674C4.08603 13.5307 4.37696 13.8376 4.80011 14.047C5.21379 14.2518 5.7277 14.3506 6.35229 14.3506C6.62844 14.3506 6.85229 14.1268 6.85229 13.8506C6.85229 13.5745 6.62843 13.3506 6.35229 13.3506C5.82627 13.3506 5.4772 13.2664 5.24365 13.1508C5.01959 13.0399 4.87899 12.8892 4.78162 12.7033C4.56282 12.2856 4.55103 11.693 4.55103 10.9218C4.55103 10.2285 4.5628 9.35679 4.2063 8.67618C4.01602 8.31292 3.72515 8.00592 3.302 7.79648C2.88832 7.59173 2.37436 7.49289 1.74976 7.49289Z" fill="white"/>
<path d="M9.4999 8C9.4999 8.82843 8.82832 9.5 7.99989 9.5C7.17147 9.5 6.49989 8.82843 6.49989 8C6.49989 7.17157 7.17147 6.5 7.99989 6.5C8.82832 6.5 9.4999 7.17157 9.4999 8Z" fill="white"/>
</svg>
