<svg width="16" height="16" viewBox="0 0 16 16" fill="none" xmlns="http://www.w3.org/2000/svg">
<path d="M11.2276 4.06623C11.4239 3.88889 11.7269 3.89477 11.9161 4.08393C12.1053 4.27309 12.1111 4.57613 11.9338 4.77241L11.9161 4.79108L8.70718 8.00001L11.9161 11.2089L11.9338 11.2276C12.1111 11.4239 12.1053 11.7269 11.9161 11.9161C11.7269 12.1052 11.4239 12.1111 11.2276 11.9338L11.2089 11.9161L8.00002 8.70716L4.7911 11.9161C4.59584 12.1113 4.27921 12.1113 4.08395 11.9161C3.88868 11.7208 3.88868 11.4042 4.08395 11.2089L7.29287 8.00001L4.08395 4.79108L4.06625 4.77241C3.8889 4.57613 3.89479 4.27309 4.08395 4.08393C4.27311 3.89477 4.57615 3.88889 4.77242 4.06623L4.7911 4.08393L8.00002 7.29285L11.2089 4.08393L11.2276 4.06623Z" fill="white"/>
</svg>
