<svg width="16" height="16" viewBox="0 0 16 16" fill="none" xmlns="http://www.w3.org/2000/svg">
<path d="M12.5409 6.77436C13.4022 7.3796 13.3883 8.67163 12.4992 9.25471L5.69763 13.7155C4.7001 14.3697 3.375 13.6541 3.375 12.4611L3.375 3.53962C3.375 2.34669 4.7001 1.63107 5.69763 2.28529L12.4992 6.74604L12.5409 6.77436ZM11.9508 8.41847C12.2471 8.2241 12.2518 7.79342 11.9647 7.59169L11.9508 7.58229L5.14923 3.12153C4.81672 2.90345 4.375 3.14198 4.375 3.53962L4.375 12.4611C4.375 12.8526 4.803 13.0898 5.13355 12.8892L5.14923 12.8792L11.9508 8.41847Z" fill="white"/>
</svg>
