<svg width="16" height="16" viewBox="0 0 16 16" fill="none" xmlns="http://www.w3.org/2000/svg">
<g clip-path="url(#clip0_278_6095)">
<path d="M3.87501 6.79688C3.87501 3.86286 6.2535 1.48438 9.18751 1.48438C12.1215 1.48438 14.5 3.86286 14.5 6.79688C14.5 9.73089 12.1215 12.1094 9.18751 12.1094C6.2535 12.1094 3.87501 9.73089 3.87501 6.79688ZM2.87501 6.79688C2.87501 10.2832 5.70121 13.1094 9.18751 13.1094C12.6738 13.1094 15.5 10.2832 15.5 6.79688C15.5 3.31058 12.6738 0.484375 9.18751 0.484375C5.70121 0.484375 2.87501 3.31058 2.87501 6.79688Z" fill="white"/>
<path d="M5.35358 10.6308C5.16442 10.4416 4.86138 10.4358 4.66511 10.6131L4.64643 10.6308L0.646432 14.6308L0.628731 14.6495C0.451389 14.8458 0.45727 15.1488 0.646432 15.338C0.835593 15.5271 1.13863 15.533 1.33491 15.3557L1.35358 15.338L5.35358 11.338L5.37128 11.3193C5.54863 11.123 5.54275 10.82 5.35358 10.6308Z" fill="white"/>
</g>
<defs>
<clipPath id="clip0_278_6095">
<rect width="16" height="16" fill="white"/>
</clipPath>
</defs>
</svg>
