<svg width="16" height="16" viewBox="0 0 16 16" fill="none" xmlns="http://www.w3.org/2000/svg">
<g clip-path="url(#clip0_278_6821)">
<path d="M8.79596 9.5C10.5191 9.5 12.0909 10.484 12.8438 12.0339L13.4498 13.2816L12.5502 13.7184L11.9443 12.4708C11.3587 11.2653 10.1362 10.5 8.79596 10.5H7.20404C5.88477 10.5 4.67954 11.2416 4.08368 12.4147L4.05573 12.4708L3.44977 13.7184L2.55023 13.2816L3.15625 12.0339L3.19214 11.9617C3.95825 10.4535 5.50785 9.5 7.20404 9.5H8.79596Z" fill="white"/>
<path d="M10 5.5C10 4.39543 9.10457 3.5 8 3.5C6.89543 3.5 6 4.39543 6 5.5C6 6.60457 6.89543 7.5 8 7.5C9.10457 7.5 10 6.60457 10 5.5ZM11 5.5C11 7.15685 9.65685 8.5 8 8.5C6.34315 8.5 5 7.15685 5 5.5C5 3.84315 6.34315 2.5 8 2.5C9.65685 2.5 11 3.84315 11 5.5Z" fill="white"/>
<path d="M15 8C15 4.13401 11.866 1 8 1C4.13401 1 1 4.13401 1 8C1 11.866 4.13401 15 8 15C11.866 15 15 11.866 15 8ZM16 8C16 12.4183 12.4183 16 8 16C3.58172 16 0 12.4183 0 8C0 3.58172 3.58172 0 8 0C12.4183 0 16 3.58172 16 8Z" fill="white"/>
</g>
<defs>
<clipPath id="clip0_278_6821">
<rect width="16" height="16" fill="white"/>
</clipPath>
</defs>
</svg>
