<svg width="16" height="16" viewBox="0 0 16 16" fill="none" xmlns="http://www.w3.org/2000/svg">
<g clip-path="url(#clip0_278_7097)">
<path d="M8 2.81952H9.93463V2.01312C9.93463 0.62996 11.6475 -0.0161568 12.561 1.02246L14.9825 3.77594L15.0132 3.81158C15.6467 4.56643 15.6365 5.67407 14.9826 6.41754L12.561 9.17102L12.5394 9.19501C11.6209 10.1995 9.93463 9.55273 9.93463 8.18036V7.4372H7.85028C7.14493 7.4372 6.66841 7.60912 6.33282 7.82343C5.9899 8.04242 5.73778 8.34213 5.54242 8.67401L5.51978 8.7113C5.27744 9.0989 4.76342 9.56601 4.05188 9.42596C3.23982 9.26612 3.00001 8.50628 3 8.02319V7.81952C3 5.07967 5.20373 2.85455 7.93536 2.81995L8 2.81952ZM7.9483 3.81982C5.7802 3.84729 4.02777 5.59971 4.00031 7.76782L4 7.81952V8.02319L4.00031 8.04633C4.01306 8.51877 4.41728 8.58961 4.66858 8.18665L4.6806 8.16675C5.17718 7.32315 6.06208 6.46443 7.76843 6.43781L7.85028 6.4372H10.9346V8.18036L10.935 8.20178C10.9521 8.64093 11.4927 8.84488 11.7956 8.52643L11.8101 8.51056L14.2317 5.75714C14.5638 5.37951 14.5638 4.81397 14.2317 4.43634L11.8101 1.68292C11.5103 1.34212 10.9523 1.54547 10.935 1.9917L10.9346 2.01312V3.81952H8L7.9483 3.81982Z" fill="white"/>
<path d="M11 14.5H5C3.0821 14.5 1.52452 12.9574 1.50031 11.0452L1.5 11L1.5 5C1.5 3.067 3.067 1.5 5 1.5L8 1.5C8.27614 1.5 8.5 1.27614 8.5 1C8.5 0.723858 8.27614 0.5 8 0.5L5 0.5C2.51472 0.5 0.5 2.51472 0.5 5L0.5 11L0.500366 11.0582C0.531509 13.5166 2.53414 15.5 5 15.5H11C13.4853 15.5 15.5 13.4853 15.5 11V9.5C15.5 9.22386 15.2761 9 15 9C14.7239 9 14.5 9.22386 14.5 9.5V11C14.5 12.933 12.933 14.5 11 14.5Z" fill="white"/>
</g>
<defs>
<clipPath id="clip0_278_7097">
<rect width="16" height="16" fill="white"/>
</clipPath>
</defs>
</svg>
