<svg width="16" height="16" viewBox="0 0 16 16" fill="none" xmlns="http://www.w3.org/2000/svg">
<path d="M14.25 4L14.2758 4.00067C14.5399 4.01408 14.75 4.2325 14.75 4.5C14.75 4.7675 14.5399 4.98592 14.2758 4.99933L14.25 5H1.75C1.47386 5 1.25 4.77614 1.25 4.5C1.25 4.22386 1.47386 4 1.75 4H14.25Z" fill="white"/>
<path d="M14.25 7.5C14.5261 7.5 14.75 7.72386 14.75 8C14.75 8.27614 14.5261 8.5 14.25 8.5H1.75C1.47386 8.5 1.25 8.27614 1.25 8C1.25 7.72386 1.47386 7.5 1.75 7.5H14.25Z" fill="white"/>
<path d="M14.25 11L14.2758 11.0007C14.5399 11.0141 14.75 11.2325 14.75 11.5C14.75 11.7675 14.5399 11.9859 14.2758 11.9993L14.25 12H1.75C1.47386 12 1.25 11.7761 1.25 11.5C1.25 11.2239 1.47386 11 1.75 11H14.25Z" fill="white"/>
</svg>
