<svg width="16" height="16" viewBox="0 0 16 16" fill="none" xmlns="http://www.w3.org/2000/svg">
<path d="M13 8.49999H4.20923L8.36566 12.646L7.65942 13.354L2.64691 8.35399L2.62976 8.33599C2.54647 8.24422 2.5 8.12451 2.5 7.99999C2.5 7.86717 2.55287 7.73979 2.64691 7.64599L7.65942 2.64599C7.85493 2.45097 8.1715 2.4514 8.36652 2.6469C8.56153 2.84241 8.56116 3.15898 8.36566 3.35399L4.20923 7.49999H13C13.2761 7.49999 13.5 7.72385 13.5 7.99999C13.5 8.27613 13.2761 8.49999 13 8.49999ZM8.36566 12.646C8.56116 12.841 8.56153 13.1576 8.36652 13.3531C8.1715 13.5486 7.85493 13.549 7.65942 13.354L8.36566 12.646Z" fill="white"/>
</svg>
