<svg width="16" height="16" viewBox="0 0 16 16" fill="none" xmlns="http://www.w3.org/2000/svg">
<path d="M6.3125 3.5C6.3125 2.67157 6.98407 2 7.8125 2H12.5C13.3284 2 14 2.67157 14 3.5V8.1875C14 9.01593 13.3284 9.6875 12.5 9.6875H10.1562V10.6875H12.5C13.8807 10.6875 15 9.56821 15 8.1875V3.5C15 2.11929 13.8807 1 12.5 1H7.8125C6.43179 1 5.3125 2.11929 5.3125 3.5V5.84375H6.3125V3.5Z" fill="white"/>
<path d="M2 7.8125C2 6.98407 2.67157 6.3125 3.5 6.3125H8.1875C9.01593 6.3125 9.6875 6.98407 9.6875 7.8125V12.5C9.6875 13.3284 9.01593 14 8.1875 14H3.5C2.67157 14 2 13.3284 2 12.5V7.8125ZM1 12.5C1 13.8807 2.11929 15 3.5 15H8.1875C9.56821 15 10.6875 13.8807 10.6875 12.5V7.8125C10.6875 6.43179 9.56821 5.3125 8.1875 5.3125H3.5C2.11929 5.3125 1 6.43179 1 7.8125V12.5Z" fill="white"/>
</svg>
