<svg width="16" height="16" viewBox="0 0 16 16" fill="none" xmlns="http://www.w3.org/2000/svg">
<g clip-path="url(#clip0_278_6380)">
<path d="M14.4995 8C14.4995 4.41015 11.5894 1.5 7.99951 1.5C4.40966 1.5 1.49951 4.41015 1.49951 8C1.49951 11.5899 4.40966 14.5 7.99951 14.5C11.5894 14.5 14.4995 11.5899 14.4995 8ZM15.4995 8C15.4995 12.1421 12.1416 15.5 7.99951 15.5C3.85738 15.5 0.499512 12.1421 0.499512 8C0.499512 3.85786 3.85738 0.5 7.99951 0.5C12.1416 0.5 15.4995 3.85786 15.4995 8Z" fill="white"/>
<path d="M11.1815 10.4749L11.1992 10.4936C11.3765 10.6898 11.3706 10.9928 11.1815 11.182C10.9923 11.3711 10.6893 11.377 10.4931 11.1997L10.4744 11.182L4.81753 5.52512C4.62227 5.32986 4.62227 5.01327 4.81753 4.81801C5.01279 4.62275 5.32938 4.62275 5.52464 4.81801L11.1815 10.4749Z" fill="white"/>
<path d="M5.52464 11.182L5.50595 11.1997C5.30967 11.377 5.00668 11.3711 4.81753 11.182C4.62838 10.9928 4.62247 10.6898 4.79979 10.4936L4.81753 10.4749L10.4744 4.81801C10.6696 4.62275 10.9862 4.62275 11.1815 4.81801C11.3768 5.01327 11.3768 5.32986 11.1815 5.52512L5.52464 11.182Z" fill="white"/>
</g>
<defs>
<clipPath id="clip0_278_6380">
<rect width="16" height="16" fill="white"/>
</clipPath>
</defs>
</svg>
