<svg width="16" height="16" viewBox="0 0 16 16" fill="none" xmlns="http://www.w3.org/2000/svg">
<path d="M10.7269 4.70129C10.6901 3.25072 9.52096 2.0816 8.07038 2.04486L8.00001 2.04395C6.4935 2.04395 5.27222 3.26522 5.27222 4.77173V6.61615C5.27222 8.12266 6.4935 9.34393 8.00001 9.34393C9.50651 9.34393 10.7278 8.12266 10.7278 6.61615V4.77173L10.7269 4.70129ZM11.7278 6.61615C11.7278 8.67494 10.0588 10.3439 8.00001 10.3439C5.94121 10.3439 4.27222 8.67494 4.27222 6.61615V4.77173C4.27222 2.71293 5.94121 1.04395 8.00001 1.04395L8.04816 1.04425C10.0848 1.07004 11.7278 2.72901 11.7278 4.77173V6.61615Z" fill="white"/>
<path d="M2.3125 6.44325C2.3125 6.16711 2.53636 5.94325 2.8125 5.94325C3.08864 5.94325 3.3125 6.16711 3.3125 6.44325C3.3125 9.03209 5.41117 11.1308 8 11.1308C10.5888 11.1308 12.6875 9.03209 12.6875 6.44325C12.6875 6.16711 12.9114 5.94325 13.1875 5.94325C13.4636 5.94325 13.6875 6.16711 13.6875 6.44325C13.6875 9.41589 11.4069 11.8558 8.5 12.109V13.955H10.7379L10.7635 13.9557C11.0277 13.9691 11.2378 14.1875 11.2379 14.455C11.2379 14.7226 11.0277 14.941 10.7635 14.9544L10.7379 14.955H5.23334C4.9572 14.955 4.73334 14.7312 4.73334 14.455C4.73335 14.1789 4.9572 13.955 5.23334 13.955H7.5V12.109C4.59305 11.8558 2.3125 9.41589 2.3125 6.44325Z" fill="white"/>
</svg>
