<svg width="16" height="16" viewBox="0 0 16 16" fill="none" xmlns="http://www.w3.org/2000/svg">
<path d="M12 6.02539C12 3.81625 10.2091 2.02539 8 2.02539C5.79086 2.02539 4 3.81625 4 6.02539C4 7.17502 4.48433 8.21075 5.26154 8.94104L5.28455 8.96301C5.52102 9.19295 5.71238 9.50154 5.77057 9.86884L6.36029 13.5912C6.39878 13.8341 6.60819 14.0129 6.85413 14.0129H9.146C9.39193 14.0129 9.60134 13.8341 9.63983 13.5912L10.2295 9.86871C10.2896 9.4896 10.4915 9.17301 10.7385 8.94092C11.5156 8.21064 12 7.17498 12 6.02539ZM13 6.02539C13 7.46233 12.3932 8.7583 11.4233 9.66968C11.3037 9.78208 11.2358 9.90746 11.2172 10.0252L10.6275 13.7476C10.5121 14.4764 9.88382 15.0129 9.146 15.0129H6.85413C6.11631 15.0129 5.48801 14.4763 5.37256 13.7476L4.7829 10.0253C4.76541 9.91494 4.70472 9.7978 4.59863 9.69098L4.57678 9.6698C3.60684 8.7584 3 7.46236 3 6.02539C3 3.26397 5.23858 1.02539 8 1.02539C10.7614 1.02539 13 3.26397 13 6.02539Z" fill="white"/>
<path d="M10.375 11.5002L10.4008 11.5009C10.6649 11.5143 10.875 11.7327 10.875 12.0002C10.875 12.2677 10.6649 12.4862 10.4008 12.4996L10.375 12.5002H5.625C5.34886 12.5002 5.125 12.2764 5.125 12.0002C5.125 11.7241 5.34886 11.5002 5.625 11.5002H10.375Z" fill="white"/>
</svg>
