<svg width="16" height="16" viewBox="0 0 16 16" fill="none" xmlns="http://www.w3.org/2000/svg">
<g clip-path="url(#clip0_278_6662)">
<path d="M14.5 8C14.5 4.41015 11.5899 1.5 8 1.5C4.41015 1.5 1.5 4.41015 1.5 8C1.5 11.5899 4.41015 14.5 8 14.5C11.5899 14.5 14.5 11.5899 14.5 8ZM15.5 8C15.5 12.1421 12.1421 15.5 8 15.5C3.85786 15.5 0.5 12.1421 0.5 8C0.5 3.85786 3.85786 0.5 8 0.5C12.1421 0.5 15.5 3.85786 15.5 8Z" fill="white"/>
<path d="M7.52319 9.5V8.92273C7.52319 8.01893 8.04313 7.19574 8.85925 6.80743C9.32698 6.5849 9.625 6.11313 9.625 5.59515V5.26904C9.62499 4.56817 9.05683 4.00001 8.35596 4H8C7.10254 4 6.375 4.72754 6.375 5.625V6.04462C6.375 6.32076 6.15114 6.54462 5.875 6.54462C5.59886 6.54462 5.375 6.32076 5.375 6.04462V5.625C5.375 4.17525 6.55025 3 8 3H8.35596C9.60911 3.00001 10.625 4.01589 10.625 5.26904V5.59515C10.625 6.49895 10.1051 7.32214 9.28894 7.71045C8.82121 7.93299 8.52319 8.40475 8.52319 8.92273V9.5C8.52319 9.77614 8.29934 10 8.02319 10C7.74705 10 7.52319 9.77614 7.52319 9.5Z" fill="white"/>
<path d="M7 12C7 11.4477 7.44772 11 8 11C8.55229 11 9 11.4477 9 12C9 12.5523 8.55229 13 8 13C7.44772 13 7 12.5523 7 12Z" fill="white"/>
</g>
<defs>
<clipPath id="clip0_278_6662">
<rect width="16" height="16" fill="white"/>
</clipPath>
</defs>
</svg>
