<svg width="16" height="16" viewBox="0 0 16 16" fill="none" xmlns="http://www.w3.org/2000/svg">
<path d="M12.5 11.5V6.90002C12.5 5.85068 11.6493 5 10.6 5H5.40002C4.35068 5 3.5 5.85068 3.5 6.90002V12.1C3.5 13.1493 4.35068 14 5.40002 14H10C11.3807 14 12.5 12.8807 12.5 11.5ZM13.5 11.5C13.5 13.433 11.933 15 10 15H5.40002C3.7984 15 2.5 13.7016 2.5 12.1V6.90002C2.5 5.2984 3.7984 4 5.40002 4H10.6C12.2016 4 13.5 5.2984 13.5 6.90002V11.5Z" fill="white"/>
<path d="M14.5 12.0312V6.5C14.5 6.22386 14.7239 6 15 6C15.2761 6 15.5 6.22386 15.5 6.5V12.0312C15.5 12.3074 15.2761 12.5312 15 12.5312C14.7239 12.5312 14.5 12.3074 14.5 12.0312Z" fill="white"/>
<path d="M0.5 12.0312V6.5C0.5 6.22386 0.723858 6 1 6C1.27614 6 1.5 6.22386 1.5 6.5V12.0312C1.5 12.3074 1.27614 12.5312 1 12.5312C0.723858 12.5312 0.5 12.3074 0.5 12.0312Z" fill="white"/>
<path d="M10.25 11.25L10.2758 11.2507C10.5399 11.2641 10.75 11.4825 10.75 11.75C10.75 12.0175 10.5399 12.2359 10.2758 12.2493L10.25 12.25H5.75C5.47386 12.25 5.25 12.0261 5.25 11.75C5.25 11.4739 5.47386 11.25 5.75 11.25H10.25Z" fill="white"/>
<path d="M6.5625 8.25C6.5625 7.97386 6.33864 7.75 6.0625 7.75H5.8125C5.53636 7.75 5.3125 7.97386 5.3125 8.25V8.5C5.3125 8.77614 5.53636 9 5.8125 9H6.0625C6.33864 9 6.5625 8.77614 6.5625 8.5V8.25ZM7.5625 8.5C7.5625 9.32843 6.89093 10 6.0625 10H5.8125C4.98407 10 4.3125 9.32843 4.3125 8.5V8.25C4.3125 7.42157 4.98407 6.75 5.8125 6.75H6.0625C6.89093 6.75 7.5625 7.42157 7.5625 8.25V8.5Z" fill="white"/>
<path d="M10.6875 8.25C10.6875 7.97386 10.4636 7.75 10.1875 7.75H9.9375C9.66136 7.75 9.4375 7.97386 9.4375 8.25V8.5C9.4375 8.77614 9.66136 9 9.9375 9H10.1875C10.4636 9 10.6875 8.77614 10.6875 8.5V8.25ZM11.6875 8.5C11.6875 9.32843 11.0159 10 10.1875 10H9.9375C9.10907 10 8.4375 9.32843 8.4375 8.5V8.25C8.4375 7.42157 9.10907 6.75 9.9375 6.75H10.1875C11.0159 6.75 11.6875 7.42157 11.6875 8.25V8.5Z" fill="white"/>
<path d="M8.75 2.75C8.75 2.33579 8.41421 2 8 2C7.58579 2 7.25 2.33579 7.25 2.75C7.25 3.16421 7.58579 3.5 8 3.5C8.41421 3.5 8.75 3.16421 8.75 2.75ZM9.75 2.75C9.75 3.7165 8.9665 4.5 8 4.5C7.0335 4.5 6.25 3.7165 6.25 2.75C6.25 1.7835 7.0335 1 8 1C8.9665 1 9.75 1.7835 9.75 2.75Z" fill="white"/>
</svg>
