<svg width="16" height="16" viewBox="0 0 16 16" fill="none" xmlns="http://www.w3.org/2000/svg">
<g clip-path="url(#clip0_278_6488)">
<path d="M7.5 8.74985V5.12485C7.5 4.84871 7.72386 4.62485 8 4.62485C8.27614 4.62485 8.5 4.84871 8.5 5.12485V8.74985C8.5 9.02599 8.27614 9.24985 8 9.24985C7.72386 9.24985 7.5 9.02599 7.5 8.74985Z" fill="white"/>
<path d="M5.7876 2.10623C6.72913 0.311135 9.31894 0.32538 10.2343 2.14896L14.9926 11.6283C15.827 13.2908 14.6184 15.2498 12.7582 15.2498H3.24176C1.3816 15.2498 0.172958 13.2908 1.00745 11.6283L5.76569 2.14896L5.7876 2.10623ZM9.34058 2.59757C8.79134 1.50344 7.23746 1.49488 6.67255 2.57193L6.65943 2.59757L1.90119 12.0769C1.40049 13.0744 2.12566 14.2498 3.24176 14.2498H12.7582C13.8743 14.2498 14.5995 13.0744 14.0988 12.0769L9.34058 2.59757Z" fill="white"/>
<path d="M8.06232 11.5311C8.0619 11.5297 8.06054 11.5261 8.05615 11.5214C8.04861 11.5133 8.02888 11.4998 8 11.4998C7.97113 11.4998 7.95139 11.5133 7.94385 11.5214C7.93946 11.5261 7.9381 11.5297 7.93768 11.5311C7.9381 11.5325 7.93946 11.5361 7.94385 11.5408C7.95139 11.5489 7.97113 11.5623 8 11.5623C8.02888 11.5623 8.04861 11.5489 8.05615 11.5408C8.06054 11.5361 8.0619 11.5325 8.06232 11.5311ZM8.9375 11.5311C8.9375 12.0331 8.5497 12.4998 8 12.4998C7.4503 12.4998 7.0625 12.0331 7.0625 11.5311C7.0625 11.0291 7.4503 10.5623 8 10.5623C8.5497 10.5623 8.9375 11.0291 8.9375 11.5311Z" fill="white"/>
</g>
<defs>
<clipPath id="clip0_278_6488">
<rect width="16" height="16" fill="white"/>
</clipPath>
</defs>
</svg>
