<svg width="16" height="16" viewBox="0 0 16 16" fill="none" xmlns="http://www.w3.org/2000/svg">
<path d="M8 12C7.72386 12 7.5 12.2239 7.5 12.5C7.5 12.7761 7.72386 13 8 13C8.27614 13 8.5 12.7761 8.5 12.5C8.5 12.2239 8.27614 12 8 12ZM8 11C8.82843 11 9.5 11.6716 9.5 12.5C9.5 13.3284 8.82843 14 8 14C7.17157 14 6.5 13.3284 6.5 12.5C6.5 11.6716 7.17157 11 8 11Z" fill="white"/>
<path d="M8 7.5C7.72386 7.5 7.5 7.72386 7.5 8C7.5 8.27614 7.72386 8.5 8 8.5C8.27614 8.5 8.5 8.27614 8.5 8C8.5 7.72386 8.27614 7.5 8 7.5ZM8 6.5C8.82843 6.5 9.5 7.17157 9.5 8C9.5 8.82843 8.82843 9.5 8 9.5C7.17157 9.5 6.5 8.82843 6.5 8C6.5 7.17157 7.17157 6.5 8 6.5Z" fill="white"/>
<path d="M8 3C7.72386 3 7.5 3.22386 7.5 3.5C7.5 3.77614 7.72386 4 8 4C8.27614 4 8.5 3.77614 8.5 3.5C8.5 3.22386 8.27614 3 8 3ZM8 2C8.82843 2 9.5 2.67157 9.5 3.5C9.5 4.32843 8.82843 5 8 5C7.17157 5 6.5 4.32843 6.5 3.5C6.5 2.67157 7.17157 2 8 2Z" fill="white"/>
</svg>
