<svg width="16" height="16" viewBox="0 0 16 16" fill="none" xmlns="http://www.w3.org/2000/svg">
<path d="M5.7381 9.46692H3.6524C2.67084 9.4669 1.95378 8.53974 2.20062 7.58972L2.72876 5.55725C3.12964 4.01451 4.52229 2.9375 6.11627 2.9375L9.5805 2.9375L9.55243 9.17395L6.65442 13.5306C6.38028 13.9427 5.7381 13.7486 5.7381 13.2536L5.7381 9.46692ZM11.9246 2.9375C12.7556 2.9375 13.4283 3.61322 13.4246 4.44428L13.4115 7.33289C13.4078 8.15866 12.7373 8.82611 11.9115 8.82611H10.5539L10.5804 2.9375L11.9246 2.9375ZM4.7381 13.2536C4.7381 14.7385 6.66458 15.3207 7.487 14.0844L10.3196 9.82611H11.9115C13.2878 9.82611 14.4053 8.71369 14.4115 7.3374L14.4245 4.44879C14.4307 3.06369 13.3097 1.9375 11.9246 1.9375L6.11627 1.9375C4.06686 1.9375 2.27634 3.32225 1.76092 5.30579L1.23279 7.3382C0.82135 8.92158 2.01644 10.4669 3.6524 10.4669H4.7381L4.7381 13.2536Z" fill="white"/>
</svg>
