<svg width="16" height="16" viewBox="0 0 16 16" fill="none" xmlns="http://www.w3.org/2000/svg">
<path d="M10.2619 6.5336H12.3476C13.3291 6.53362 14.0462 7.46078 13.7993 8.41079L13.2712 10.4433C12.8703 11.986 11.4777 13.063 9.88369 13.063H6.41946L6.44754 6.82657L9.34555 2.46994C9.61969 2.05783 10.2619 2.25195 10.2619 2.74692V6.5336ZM4.0754 13.063C3.24434 13.063 2.57166 12.3873 2.5754 11.5562L2.58847 8.66763C2.59219 7.84186 3.26268 7.17441 4.08847 7.17441H5.44607L5.41952 13.063H4.0754ZM11.2619 2.74692C11.2619 1.26202 9.33538 0.679769 8.51297 1.9161L5.68038 6.17441H4.08847C2.73367 6.17441 1.62967 7.25232 1.58956 8.59878L1.58847 8.66311L1.57547 11.5517C1.56922 12.9368 2.69029 14.063 4.0754 14.063H9.88369C11.9331 14.063 13.7236 12.6783 14.239 10.6947L14.7672 8.66232C15.1786 7.07894 13.9835 5.53362 12.3476 5.5336H11.2619V2.74692Z" fill="white"/>
</svg>
