<svg width="16" height="16" viewBox="0 0 16 16" fill="none" xmlns="http://www.w3.org/2000/svg">
<path d="M4.75 11.25C4.75 9.72317 5.98776 8.48541 7.51459 8.48541H8.51459C10.5776 8.4854 12.25 6.81301 12.25 4.75C12.25 4.47386 12.0261 4.25 11.75 4.25C11.4739 4.25 11.25 4.47386 11.25 4.75C11.25 6.26073 10.0253 7.4854 8.51459 7.48541H7.51459C5.43547 7.48541 3.75 9.17088 3.75 11.25C3.75 11.5261 3.97386 11.75 4.25 11.75C4.52614 11.75 4.75 11.5261 4.75 11.25Z" fill="white"/>
<path d="M3.75 11.25V4.75C3.75 4.47386 3.97386 4.25 4.25 4.25C4.52614 4.25 4.75 4.47386 4.75 4.75V11.25C4.75 11.5261 4.52614 11.75 4.25 11.75C3.97386 11.75 3.75 11.5261 3.75 11.25Z" fill="white"/>
<path d="M2.875 2.875C2.875 2.11561 3.49061 1.5 4.25 1.5C5.00939 1.5 5.625 2.11561 5.625 2.875C5.625 3.63439 5.00939 4.25 4.25 4.25C3.49061 4.25 2.875 3.63439 2.875 2.875ZM1.875 2.875C1.875 4.18668 2.93832 5.25 4.25 5.25C5.56168 5.25 6.625 4.18668 6.625 2.875C6.625 1.56332 5.56168 0.5 4.25 0.5C2.93832 0.5 1.875 1.56332 1.875 2.875Z" fill="white"/>
<path d="M10.375 2.875C10.375 2.11561 10.9906 1.5 11.75 1.5C12.5094 1.5 13.125 2.11561 13.125 2.875C13.125 3.63439 12.5094 4.25 11.75 4.25C10.9906 4.25 10.375 3.63439 10.375 2.875ZM9.375 2.875C9.375 4.18668 10.4383 5.25 11.75 5.25C13.0617 5.25 14.125 4.18668 14.125 2.875C14.125 1.56332 13.0617 0.5 11.75 0.5C10.4383 0.5 9.375 1.56332 9.375 2.875Z" fill="white"/>
<path d="M2.875 13.125C2.875 12.3656 3.49061 11.75 4.25 11.75C5.00939 11.75 5.625 12.3656 5.625 13.125C5.625 13.8844 5.00939 14.5 4.25 14.5C3.49061 14.5 2.875 13.8844 2.875 13.125ZM1.875 13.125C1.875 14.4367 2.93832 15.5 4.25 15.5C5.56168 15.5 6.625 14.4367 6.625 13.125C6.625 11.8133 5.56168 10.75 4.25 10.75C2.93832 10.75 1.875 11.8133 1.875 13.125Z" fill="white"/>
</svg>
