<svg width="16" height="16" viewBox="0 0 16 16" fill="none" xmlns="http://www.w3.org/2000/svg">
<path d="M14 5.49902C14 3.56603 12.433 1.99902 10.5 1.99902H5.5C3.567 1.99902 2 3.56603 2 5.49902V7.4657L2.00085 7.54242C2.03544 9.14915 3.15318 10.4903 4.65375 10.8627C4.87674 10.918 5.03333 11.1182 5.03333 11.348V13.8877L7.80884 11.1121L7.82684 11.095C7.91856 11.012 8.0381 10.9657 8.16241 10.9657H10.5C12.4179 10.9657 13.9755 9.42307 13.9997 7.51093L14 7.4657V5.49902ZM15 7.4657L14.9996 7.52386C14.9685 9.98232 12.9659 11.9657 10.5 11.9657H8.36957L5.74048 14.5948C5.11056 15.2248 4.03337 14.7787 4.03333 13.8878V11.7209C2.28317 11.1177 1.02125 9.46587 1.00024 7.51514L1 7.4657V5.49902C1 3.01374 3.01472 0.999023 5.5 0.999023H10.5C12.9853 0.999023 15 3.01374 15 5.49902V7.4657Z" fill="white"/>
</svg>
