<svg width="16" height="16" viewBox="0 0 16 16" fill="none" xmlns="http://www.w3.org/2000/svg">
<path d="M13.6954 6.49922C13.8816 6.29529 13.8672 5.97903 13.6633 5.79284L9.55718 2.04385C9.35325 1.85766 9.037 1.87203 8.85081 2.07596L5.40187 5.85342L10.2465 10.2767L13.6954 6.49922ZM10.6478 11.3202C10.4616 11.5241 10.1454 11.5385 9.94143 11.3523L4.35836 6.25478C4.15443 6.06859 4.14006 5.75233 4.32625 5.5484L8.11232 1.4017C8.67089 0.789914 9.61966 0.746781 10.2314 1.30536L14.3375 5.05435C14.9493 5.61293 14.9925 6.5617 14.4339 7.17348L10.6478 11.3202Z" fill="white"/>
<path d="M9.57219 11.0152L4.72761 6.59191L4.42616 6.92208C3.95248 7.44089 3.78573 8.17018 3.9869 8.84328L4.37053 10.1269C4.43353 10.3377 4.35126 10.565 4.1679 10.6866L2.88981 11.5348C2.16094 12.0184 2.08064 13.0583 2.72662 13.6481C3.37262 14.2379 4.40095 14.0636 4.81649 13.2939L5.54514 11.9441C5.64967 11.7505 5.8685 11.6479 6.08419 11.6915L7.39732 11.9571C8.0859 12.0964 8.79705 11.8641 9.27074 11.3453L9.57219 11.0152ZM10.0092 12.0196C9.2987 12.7978 8.23195 13.1461 7.19908 12.9372L6.24912 12.745L5.69648 13.7689C4.97191 15.1111 3.1788 15.4151 2.05236 14.3866C0.925936 13.3581 1.06594 11.5449 2.3369 10.7015L3.30625 10.0582L3.02875 9.1296C2.72702 8.11995 2.97715 7.02602 3.68767 6.24781L4.32625 5.5484L4.34411 5.52983C4.53213 5.34378 4.83508 5.33592 5.03263 5.51629L10.6157 10.6138L10.6343 10.6317C10.8203 10.8197 10.8282 11.1226 10.6478 11.3202L10.0092 12.0196Z" fill="white"/>
<path d="M7.65157 4.66561L7.9403 4.34937C8.27123 3.98693 8.25126 3.42796 7.89933 3.08993L7.88236 3.07402L7.54431 2.76537C7.34038 2.57918 7.326 2.26292 7.5122 2.05899C7.69839 1.85506 8.01465 1.84069 8.21858 2.02688L8.55663 2.33553L8.59246 2.36907C9.3342 3.08156 9.37628 4.25971 8.67879 5.02364L8.39006 5.33988C8.21337 5.53342 8.22701 5.83359 8.42053 6.0103C8.61407 6.18701 8.91424 6.17335 9.09095 5.97982L9.39059 5.65164C9.92817 5.06286 10.8413 5.02136 11.4301 5.55892L11.601 5.71498C12.1104 6.18009 12.1331 6.97474 11.6511 7.4682C11.5643 7.55714 11.5684 7.70034 11.6602 7.78417L12.4407 8.49679L12.4592 8.51465C12.6453 8.70267 12.6531 9.00561 12.4728 9.20317C12.2924 9.40072 11.99 9.42043 11.7858 9.25219L11.7664 9.23528L10.9859 8.52266C10.4765 8.05754 10.4537 7.26289 10.9358 6.76943C11.0226 6.68049 11.0185 6.53729 10.9267 6.45347L10.7558 6.29741C10.5749 6.13224 10.2943 6.14498 10.1291 6.3259L9.82944 6.65408C9.28034 7.25547 8.34767 7.29788 7.74627 6.74879C7.14489 6.19969 7.10249 5.26701 7.65157 4.66561Z" fill="white"/>
</svg>
