<svg width="16" height="16" viewBox="0 0 16 16" fill="none" xmlns="http://www.w3.org/2000/svg">
<g clip-path="url(#clip0_294_1689)">
<path d="M14.5 5C14.5 3.12727 13.0292 1.59842 11.1797 1.50488L11 1.5H5C3.067 1.5 1.5 3.067 1.5 5V11L1.50488 11.1797C1.59842 13.0292 3.12727 14.5 5 14.5H11C12.933 14.5 14.5 12.933 14.5 11V5ZM15.5 11C15.5 13.4853 13.4853 15.5 11 15.5H5C2.59234 15.5 0.626322 13.6092 0.505859 11.2314L0.5 11V5C0.5 2.51472 2.51472 0.5 5 0.5H11L11.2314 0.505859C13.6092 0.626321 15.5 2.59234 15.5 5V11Z" fill="white"/>
<path d="M5.22852 5.02148C5.03316 4.82661 4.71654 4.82642 4.52148 5.02148C4.32661 5.21684 4.32642 5.53346 4.52148 5.72852L6.49707 7.69922L4.52148 9.66992C4.32638 9.86497 4.3266 10.1816 4.52148 10.377C4.71653 10.572 5.03314 10.5728 5.22852 10.3779L7.55859 8.05371C7.65263 7.95991 7.70508 7.83204 7.70508 7.69922C7.70507 7.56661 7.65236 7.43946 7.55859 7.3457L5.22852 5.02148Z" fill="white"/>
<path d="M11.125 10.0625C11.4011 10.0625 11.625 10.2864 11.625 10.5625C11.625 10.8386 11.4011 11.0625 11.125 11.0625H7.625C7.34886 11.0625 7.125 10.8386 7.125 10.5625C7.125 10.2864 7.34886 10.0625 7.625 10.0625H11.125Z" fill="white"/>
</g>
<defs>
<clipPath id="clip0_294_1689">
<rect width="16" height="16" fill="white"/>
</clipPath>
</defs>
</svg>
