<svg width="16" height="16" viewBox="0 0 16 16" fill="none" xmlns="http://www.w3.org/2000/svg">
<g clip-path="url(#clip0_278_7148)">
<path d="M14.5 8.46667L14.5 11C14.5 12.933 12.933 14.5 11 14.5H5C3.067 14.5 1.5 12.933 1.5 11L1.5 5L1.50031 4.95477C1.52452 3.04262 3.0821 1.5 5 1.5L7.53332 1.5L7.55908 1.49933C7.82326 1.48593 8.03332 1.26751 8.03332 1C8.03332 0.732494 7.82326 0.514073 7.55908 0.500671L7.53332 0.5L5 0.5C2.53414 0.5 0.531509 2.48336 0.500366 4.94183L0.5 5L0.500001 11C0.500001 13.4853 2.51472 15.5 5 15.5H11C13.4853 15.5 15.5 13.4853 15.5 11L15.5 8.46667C15.5 8.19053 15.2761 7.96667 15 7.96667C14.7239 7.96667 14.5 8.19053 14.5 8.46667Z" fill="white"/>
<path d="M14.5 2.96167C14.5 2.15922 13.8359 1.50002 13.0238 1.5C12.6414 1.5 12.2703 1.64765 11.9958 1.90857L11.9695 1.93414L5.68866 8.21503L5.33936 10.6599L7.75549 10.3116L14.0719 3.99524L14.0972 3.96924C14.3555 3.69785 14.5 3.33721 14.5 2.96167ZM15.5 2.96167C15.5 3.59415 15.2566 4.20151 14.8217 4.65857L14.779 4.70233L8.46259 11.0187C8.31944 11.1619 8.13646 11.258 7.93805 11.2948L7.89819 11.3014L5.48206 11.6497C4.82169 11.7448 4.25507 11.1789 4.34943 10.5184L4.69867 8.07361L4.7052 8.03363C4.74188 7.83478 4.83808 7.65136 4.98151 7.50794L11.2624 1.22705L11.3066 1.1839C11.769 0.74435 12.3876 0.500001 13.0238 0.500001C14.3785 0.500015 15.5 1.59734 15.5 2.96167Z" fill="white"/>
<path d="M13.5372 5.33008L12.8378 6.04492L9.96283 3.23242L10.6622 2.51758L13.5372 5.33008Z" fill="white"/>
</g>
<defs>
<clipPath id="clip0_278_7148">
<rect width="16" height="16" fill="white"/>
</clipPath>
</defs>
</svg>
