<svg width="16" height="16" viewBox="0 0 16 16" fill="none" xmlns="http://www.w3.org/2000/svg">
<path d="M8.68592 1C10.9279 0.997658 13.1897 2.35131 14.0248 4.98145L14.101 5.24024L14.2006 5.65918C14.4677 6.92198 14.8648 10.1 13.1273 13.249L13.1263 13.25C12.6209 14.1641 11.6829 15.0605 10.6986 15.459C10.2008 15.6604 9.56408 15.7841 8.93494 15.5586C8.6745 15.4652 8.45017 15.3237 8.25916 15.1465C7.22962 15.6815 6.07632 15.8407 5.12733 15.4424C4.45961 15.1621 3.93567 14.61 3.74549 13.8301C3.6869 13.5896 3.66584 13.3402 3.67322 13.084C3.13972 13.0354 2.66313 12.8114 2.32947 12.3281C2.06046 11.9385 1.98885 11.4999 2.00135 11.1397C2.01395 10.7768 2.11318 10.4166 2.27479 10.1113L2.27772 10.1064L2.56287 9.56934C2.62923 9.43932 2.6753 9.34011 2.71522 9.23438C2.86853 8.8105 2.91129 8.57168 2.97791 8.11328L2.97889 8.11133L3.02381 7.77051C3.06374 7.43395 3.09092 7.10561 3.13319 6.72657C3.18393 6.27143 3.25554 5.77596 3.40174 5.28809C4.06856 2.4575 6.36794 1.00258 8.68592 1ZM13.1361 5.50391C11.8587 0.832507 5.47137 0.824247 4.37244 5.52735C4.11462 6.35134 4.1109 7.28628 3.96815 8.25684L3.91444 8.59864C3.85996 8.91789 3.79445 9.19102 3.65467 9.57715C3.5436 9.87417 3.39651 10.1355 3.15858 10.5791L3.09608 10.7148C2.81915 11.4262 3.06597 12.5525 4.83631 11.9063L5.00526 11.8311C3.69642 14.732 6.49205 15.4597 8.55408 13.7607C9.12312 15.5472 11.156 14.4089 12.0814 13.042L12.2513 12.7666C13.8239 9.9168 13.4643 7.01816 13.225 5.87891L13.1361 5.50391Z" fill="white"/>
<path d="M8.79995 7.52841C8.27627 7.52841 8.19693 6.90239 8.19693 6.52994C8.19693 6.19316 8.25644 5.92769 8.37149 5.75732C8.47067 5.60676 8.61746 5.53148 8.79995 5.53148C8.98245 5.53148 9.14114 5.60676 9.25222 5.76128C9.37917 5.93562 9.44662 6.20108 9.44662 6.52994C9.44662 7.15597 9.20461 7.52841 8.80392 7.52841H8.79995Z" fill="white"/>
<path d="M10.9541 7.52841C10.4304 7.52841 10.3511 6.90239 10.3511 6.52994C10.3511 6.19316 10.4106 5.92769 10.5256 5.75732C10.6248 5.60676 10.7716 5.53148 10.9541 5.53148C11.1366 5.53148 11.2953 5.60676 11.4064 5.76128C11.5333 5.93562 11.6008 6.20108 11.6008 6.52994C11.6008 7.15597 11.3588 7.52841 10.9581 7.52841H10.9541Z" fill="white"/>
</svg>
