<svg width="16" height="16" viewBox="0 0 16 16" fill="none" xmlns="http://www.w3.org/2000/svg">
<path d="M11 11.5624V11.1874C11 10.9113 11.2239 10.6874 11.5 10.6874C11.7761 10.6874 12 10.9113 12 11.1874V11.5624C12 12.667 11.1046 13.5624 10 13.5624H7.03125C6.75511 13.5624 6.53125 13.3386 6.53125 13.0624C6.53125 12.7863 6.75511 12.5624 7.03125 12.5624H10C10.5523 12.5624 11 12.1147 11 11.5624ZM11 3.43741V3.06241C11 2.51013 10.5523 2.06241 10 2.06241H2.0625C1.78636 2.06241 1.5625 1.83855 1.5625 1.56241C1.5625 1.28627 1.78636 1.06241 2.0625 1.06241H10C11.1046 1.06241 12 1.95784 12 3.06241V3.43741C12 3.71355 11.7761 3.93741 11.5 3.93741C11.2239 3.93741 11 3.71355 11 3.43741Z" fill="white"/>
<path d="M6.5 4.39432C6.5 3.97381 6.23692 3.59821 5.84174 3.4545L2 2.05753V11.4265C2 11.7684 2.17469 12.0866 2.46313 12.2702L5.73157 14.3501C6.06442 14.5619 6.49999 14.3228 6.5 13.9283V4.39432ZM7.5 13.9283C7.49999 15.1026 6.2136 15.818 5.21814 15.2084L5.1947 15.1938L1.92627 13.1138C1.34937 12.7467 1 12.1103 1 11.4265V2.05753C1 1.36357 1.68956 0.88056 2.34174 1.11771L6.18347 2.51474C6.97385 2.80215 7.5 3.55331 7.5 4.39432V13.9283Z" fill="white"/>
<path d="M9 7.99991H13.2905L12.1413 9.14585L12.8474 9.85398L14.853 7.85398L14.8702 7.83597C14.9535 7.74419 15 7.62446 15 7.49991C15 7.36706 14.9471 7.23965 14.853 7.14585L12.8474 5.14585C12.6519 4.95087 12.3353 4.95135 12.1403 5.14688C11.9453 5.34242 11.9458 5.65899 12.1413 5.85398L13.2905 6.99991H9C8.72386 6.99991 8.5 7.22377 8.5 7.49991C8.5 7.77605 8.72386 7.99991 9 7.99991ZM12.1413 9.14585C11.9458 9.34083 11.9453 9.6574 12.1403 9.85294C12.3353 10.0485 12.6519 10.049 12.8474 9.85398L12.1413 9.14585Z" fill="white"/>
</svg>
