<svg width="16" height="16" viewBox="0 0 16 16" fill="none" xmlns="http://www.w3.org/2000/svg">
<g clip-path="url(#clip0_278_5909)">
<path d="M0.5 14.0469V0.984375C0.5 0.708233 0.723858 0.484375 1 0.484375C1.27614 0.484375 1.5 0.708233 1.5 0.984375V14.0469C1.5 14.323 1.72386 14.5469 2 14.5469H15L15.0258 14.5475C15.2899 14.561 15.5 14.7794 15.5 15.0469C15.5 15.3144 15.2899 15.5328 15.0258 15.5462L15 15.5469H2C1.17157 15.5469 0.5 14.8753 0.5 14.0469Z" fill="white"/>
<path d="M14.6632 3.42731C14.8586 3.24897 15.1616 3.25334 15.3517 3.44153C15.5419 3.62972 15.5493 3.9327 15.373 4.12988L15.3553 4.14862L10.7109 8.84094C10.6171 8.93576 10.4892 8.98919 10.3558 8.98926C10.2224 8.98933 10.0946 8.93607 10.0006 8.84137L7.5509 6.37164L4.16705 9.77448C3.97233 9.97027 3.6557 9.97115 3.4599 9.77643C3.2641 9.58171 3.26323 9.26508 3.45795 9.06927L7.1969 5.30957L7.21484 5.29236C7.30675 5.20871 7.42683 5.1621 7.5517 5.16217C7.6849 5.16226 7.81257 5.21549 7.90637 5.31006L10.3552 7.77887L14.6447 3.44513L14.6632 3.42731Z" fill="white"/>
</g>
<defs>
<clipPath id="clip0_278_5909">
<rect width="16" height="16" fill="white"/>
</clipPath>
</defs>
</svg>
