<svg width="16" height="16" viewBox="0 0 16 16" fill="none" xmlns="http://www.w3.org/2000/svg">
<g clip-path="url(#clip0_278_6626)">
<path d="M5.13885 2.21484L2.2464 5.13336H5.13885V2.21484ZM10.9844 7.625V3C10.9844 2.18451 10.3336 1.52101 9.52307 1.50049L9.48438 1.5H6.13885V5.13336C6.13884 5.68563 5.69113 6.13336 5.13885 6.13336H1.54688V13C1.54688 13.8284 2.21845 14.5 3.04688 14.5H8.01562C8.29177 14.5 8.51562 14.7239 8.51562 15C8.51562 15.2761 8.29177 15.5 8.01562 15.5H3.04688C1.66616 15.5 0.546875 14.3807 0.546875 13V5.63336C0.546875 5.50154 0.598921 5.37501 0.691711 5.28137L5.28375 0.64801L5.3017 0.630737C5.3936 0.546819 5.51381 0.500002 5.63885 0.5H9.48438L9.54889 0.500793C10.8998 0.535013 11.9844 1.64086 11.9844 3V7.625C11.9844 7.90114 11.7605 8.125 11.4844 8.125C11.2082 8.125 10.9844 7.90114 10.9844 7.625Z" fill="white"/>
<path d="M13.25 15.5L13.2493 15.5258C13.2359 15.7899 13.0175 16 12.75 16C12.4825 16 12.2641 15.7899 12.2507 15.5258L12.25 15.5V10C12.25 9.72386 12.4739 9.5 12.75 9.5C13.0261 9.5 13.25 9.72386 13.25 10V15.5Z" fill="white"/>
<path d="M10 13.25L9.97424 13.2493C9.71007 13.2359 9.5 13.0175 9.5 12.75C9.5 12.4825 9.71007 12.2641 9.97424 12.2507L10 12.25L15.5 12.25C15.7761 12.25 16 12.4739 16 12.75C16 13.0261 15.7761 13.25 15.5 13.25L10 13.25Z" fill="white"/>
</g>
<defs>
<clipPath id="clip0_278_6626">
<rect width="16" height="16" fill="white"/>
</clipPath>
</defs>
</svg>
