<svg width="16" height="16" viewBox="0 0 16 16" fill="none" xmlns="http://www.w3.org/2000/svg">
<path d="M9 8C9 7.44772 8.55229 7 8 7C7.44772 7 7 7.44772 7 8C7 8.55228 7.44772 9 8 9C8.55229 9 9 8.55228 9 8ZM10 8C10 9.10457 9.10457 10 8 10C6.89543 10 6 9.10457 6 8C6 6.89543 6.89543 6 8 6C9.10457 6 10 6.89543 10 8Z" fill="white"/>
<path d="M14.5 8C14.5 7.44772 14.0523 7 13.5 7C12.9477 7 12.5 7.44772 12.5 8C12.5 8.55228 12.9477 9 13.5 9C14.0523 9 14.5 8.55228 14.5 8ZM15.5 8C15.5 9.10457 14.6046 10 13.5 10C12.3954 10 11.5 9.10457 11.5 8C11.5 6.89543 12.3954 6 13.5 6C14.6046 6 15.5 6.89543 15.5 8Z" fill="white"/>
<path d="M3.5 8C3.5 7.44772 3.05228 7 2.5 7C1.94772 7 1.5 7.44772 1.5 8C1.5 8.55228 1.94772 9 2.5 9C3.05228 9 3.5 8.55228 3.5 8ZM4.5 8C4.5 9.10457 3.60457 10 2.5 10C1.39543 10 0.5 9.10457 0.5 8C0.5 6.89543 1.39543 6 2.5 6C3.60457 6 4.5 6.89543 4.5 8Z" fill="white"/>
</svg>
