<svg width="16" height="16" viewBox="0 0 16 16" fill="none" xmlns="http://www.w3.org/2000/svg">
<g clip-path="url(#clip0_288_5295)">
<path d="M14.5 5C14.5 3.067 12.933 1.5 11 1.5H5C3.067 1.5 1.5 3.067 1.5 5V11C1.5 12.933 3.067 14.5 5 14.5H11C12.933 14.5 14.5 12.933 14.5 11V5ZM15.5 11C15.5 13.4853 13.4853 15.5 11 15.5H5C2.51472 15.5 0.5 13.4853 0.5 11V5C0.5 2.51472 2.51472 0.5 5 0.5H11C13.4853 0.5 15.5 2.51472 15.5 5V11Z" fill="white"/>
<path d="M11.6875 6.125C11.6875 5.12398 10.876 4.3125 9.875 4.3125C8.87398 4.3125 8.0625 5.12398 8.0625 6.125C8.0625 7.12602 8.87398 7.9375 9.875 7.9375C10.876 7.9375 11.6875 7.12602 11.6875 6.125ZM12.6875 6.125C12.6875 7.6783 11.4283 8.9375 9.875 8.9375C8.3217 8.9375 7.0625 7.6783 7.0625 6.125C7.0625 4.5717 8.3217 3.3125 9.875 3.3125C11.4283 3.3125 12.6875 4.5717 12.6875 6.125Z" fill="white"/>
<path d="M3.25586 8.44672C4.02134 7.83356 5.13466 7.86384 5.86719 8.54535L12.2783 14.5092L12.3447 14.5854C12.4796 14.7746 12.468 15.0384 12.3037 15.2153C12.1391 15.3922 11.8763 15.4232 11.6777 15.3022L11.5967 15.2407L5.18555 9.27679C4.81941 8.93649 4.2635 8.92172 3.88086 9.22797L3.80664 9.2934L1.34961 11.6918L1.26953 11.7543C1.07404 11.8799 0.811288 11.8556 0.642578 11.683C0.449808 11.4855 0.453052 11.1689 0.650391 10.976L3.1084 8.57758L3.25586 8.44672Z" fill="white"/>
</g>
<defs>
<clipPath id="clip0_288_5295">
<rect width="16" height="16" fill="white"/>
</clipPath>
</defs>
</svg>
