<svg width="16" height="16" viewBox="0 0 16 16" fill="none" xmlns="http://www.w3.org/2000/svg">
<path d="M12.875 9.31256C12.875 8.20799 11.9796 7.31256 10.875 7.31256H5.125C4.02043 7.31256 3.125 8.20799 3.125 9.31256V12.5C3.125 13.6046 4.02043 14.5 5.125 14.5H10.875C11.9796 14.5 12.875 13.6046 12.875 12.5V9.31256ZM13.875 12.5C13.875 14.1568 12.5319 15.5 10.875 15.5H5.125C3.46815 15.5 2.125 14.1568 2.125 12.5V9.31256C2.125 7.6557 3.46815 6.31256 5.125 6.31256H10.875C12.5319 6.31256 13.875 7.6557 13.875 9.31256V12.5Z" fill="white"/>
<path d="M7.50011 12.3001V9.70008C7.50011 9.42394 7.72397 9.20008 8.00011 9.20008C8.26762 9.20008 8.48604 9.41015 8.49944 9.67432L8.50011 9.70008V12.3001C8.50011 12.5762 8.27626 12.8001 8.00011 12.8001C7.72397 12.8001 7.50011 12.5762 7.50011 12.3001Z" fill="white"/>
<path d="M10.0002 3.53125C10.0002 2.40942 9.09073 1.5 7.9689 1.5C6.84708 1.5 5.93766 2.40942 5.93765 3.53125V6.81244H4.93765V3.53125C4.93766 1.85714 6.29479 0.500004 7.9689 0.5C9.64302 0.5 11.0002 1.85714 11.0002 3.53125V6.81244H10.0002V3.53125Z" fill="white"/>
</svg>
