<svg width="16" height="16" viewBox="0 0 16 16" fill="none" xmlns="http://www.w3.org/2000/svg">
<path d="M13.5 2.5C13.7762 2.5 14 2.72386 14 3C14 3.27614 13.7762 3.5 13.5 3.5H2.50002C2.22388 3.5 2.00002 3.27614 2.00002 3C2.00002 2.72386 2.22388 2.5 2.50002 2.5H13.5Z" fill="white"/>
<path d="M13.5 6.5C13.7762 6.5 14 6.72386 14 7C14 7.27614 13.7762 7.5 13.5 7.5H8.00002C7.72388 7.5 7.50002 7.27614 7.50002 7C7.50002 6.72386 7.72388 6.5 8.00002 6.5H13.5Z" fill="white"/>
<path d="M13.5 10.3125C13.7762 10.3125 14 10.5364 14 10.8125C14 11.0886 13.7762 11.3125 13.5 11.3125H11.0625C10.7864 11.3125 10.5625 11.0886 10.5625 10.8125C10.5625 10.5364 10.7864 10.3125 11.0625 10.3125H13.5Z" fill="white"/>
<path d="M5.75002 5.5L5.75002 12.2928L7.65206 10.3908L8.35921 11.0979L5.60353 13.8536L5.58559 13.8707C5.4938 13.9538 5.37412 14.0001 5.24971 14C5.11703 13.9999 4.9898 13.9471 4.89608 13.8532L2.14608 11.0975L2.8539 10.3912L4.75002 12.2912L4.75002 5.5C4.75002 5.22386 4.97388 5 5.25002 5C5.52615 5.00001 5.75002 5.22387 5.75002 5.5ZM7.65206 10.3908C7.84732 10.1955 8.16395 10.1955 8.35921 10.3908C8.55445 10.5861 8.55445 10.9026 8.35921 11.0979L7.65206 10.3908ZM2.14608 11.0975C1.95102 10.9021 1.95135 10.5855 2.14681 10.3904C2.34227 10.1954 2.65884 10.1957 2.8539 10.3912L2.14608 11.0975Z" fill="white"/>
</svg>
