<svg width="16" height="16" viewBox="0 0 16 16" fill="none" xmlns="http://www.w3.org/2000/svg">
<path d="M4 14.5C2.067 14.5 0.5 12.933 0.5 11L0.5 8.7619L3.26801 2.95544C3.68278 2.08537 4.56083 1.53125 5.52472 1.53125L10.4996 1.53125C11.4515 1.53125 12.3194 2.07166 12.7403 2.92255L12.76 2.96332L15.5 8.76282V11C15.5 12.933 13.933 14.5 12 14.5H4ZM4.38458 8.375C4.83525 8.37501 5.19237 8.66761 5.3537 9.01599C5.61986 9.59073 6.34018 10.7045 8 10.7045L8.07745 10.7037C9.68978 10.6696 10.4077 9.57233 10.6756 9.00641C10.8388 8.6618 11.194 8.375 11.6401 8.375H14.2108L11.8558 3.3905L11.844 3.36603C11.5914 2.8555 11.0707 2.53125 10.4996 2.53125L5.52472 2.53125C4.94639 2.53125 4.41958 2.86376 4.17072 3.3858L1.79224 8.375H4.38458ZM12 13.5C13.3807 13.5 14.5 12.3807 14.5 11V9.375H11.6401C11.6397 9.375 11.6385 9.37501 11.6357 9.37592C11.6328 9.37689 11.6275 9.37911 11.6208 9.38379C11.6081 9.39256 11.5943 9.40705 11.5837 9.42596L11.5794 9.43433C11.2401 10.151 10.2511 11.6804 8.05219 11.7043L8 11.7045C5.76895 11.7045 4.78282 10.1629 4.44629 9.43622L4.44196 9.42761C4.43131 9.40819 4.41719 9.39321 4.40417 9.38409C4.39724 9.37924 4.39189 9.37692 4.38885 9.37592C4.3861 9.375 4.38486 9.375 4.38458 9.375H1.5L1.5 11C1.5 12.3807 2.61929 13.5 4 13.5H12Z" fill="white"/>
</svg>
