<svg width="16" height="16" viewBox="0 0 16 16" fill="none" xmlns="http://www.w3.org/2000/svg">
<path d="M9.5625 11.8013C9.5625 10.962 8.88218 10.2817 8.04297 10.2817C7.20375 10.2817 6.52344 10.962 6.52344 11.8013V14.063H9.5625V11.8013ZM10.5625 14.063H13C13.5523 14.063 14 13.6153 14 13.063V7.6801C14 7.41655 13.896 7.16362 13.7105 6.97636L9.448 2.67265C8.66675 1.88386 7.39252 1.88233 6.60938 2.66923L2.32245 6.97679C2.13596 7.16418 2.03125 7.4178 2.03125 7.68217V13.063C2.03125 13.6153 2.47897 14.063 3.03125 14.063H5.52344V11.8013C5.52344 10.4098 6.65147 9.28172 8.04297 9.28172C9.43447 9.28172 10.5625 10.4098 10.5625 11.8013V14.063ZM15 13.063C15 14.1675 14.1046 15.063 13 15.063H3.03125C1.92668 15.063 1.03125 14.1675 1.03125 13.063V7.68217C1.03125 7.15341 1.24065 6.64614 1.61365 6.27135L5.90057 1.96385C7.07529 0.783485 8.98658 0.785786 10.1584 1.96898L14.421 6.27269C14.7919 6.64719 15 7.15301 15 7.6801V13.063Z" fill="white"/>
<path d="M9.96875 6.06297C10.2449 6.06297 10.4688 6.28683 10.4688 6.56297C10.4688 6.83911 10.2449 7.06297 9.96875 7.06297H6C5.72386 7.06297 5.5 6.83911 5.5 6.56297C5.5 6.28683 5.72386 6.06297 6 6.06297H9.96875Z" fill="white"/>
</svg>
