<svg width="16" height="16" viewBox="0 0 16 16" fill="none" xmlns="http://www.w3.org/2000/svg">
<path d="M9.90623 13.125V12.125H12.751C13.1378 12.125 13.3781 11.7047 13.1819 11.3714L11.8545 9.11603C11.476 8.47303 11.2814 7.73846 11.2918 6.99243C11.3157 5.2778 9.93231 3.87501 8.21751 3.875H7.7617C6.04431 3.875 4.65655 5.2756 4.67235 6.99292C4.67923 7.74003 4.48126 8.47476 4.10002 9.11731L2.76353 11.3699L2.75462 11.3856C2.57336 11.7163 2.8121 12.125 3.19359 12.125H6.12498V13.125H3.19359C2.04912 13.125 1.33293 11.8987 1.87669 10.9067L1.90355 10.8596L3.24004 8.60706C3.52805 8.12163 3.67754 7.56655 3.67235 7.00214C3.65142 4.72895 5.48842 2.875 7.7617 2.875H8.21751C10.49 2.87501 12.3233 4.73405 12.2917 7.00635C12.2841 7.5517 12.4217 8.08895 12.6899 8.56311L12.7163 8.60876L14.0437 10.8641C14.6323 11.8641 13.9113 13.125 12.751 13.125H9.90623Z" fill="white"/>
<path d="M5.62498 13.125V12.625C5.62498 12.3489 5.84884 12.125 6.12498 12.125C6.40113 12.125 6.62498 12.3489 6.62498 12.625V13.125C6.62498 13.834 7.22448 14.4375 7.99998 14.4375C8.77549 14.4375 9.37498 13.834 9.37498 13.125V12.625C9.37498 12.3489 9.59884 12.125 9.87498 12.125C10.1511 12.125 10.375 12.3489 10.375 12.625V13.125C10.375 14.418 9.29555 15.4375 7.99998 15.4375C6.70442 15.4375 5.62498 14.418 5.62498 13.125Z" fill="white"/>
<path d="M8.68748 2.21875C8.68748 1.8688 8.39233 1.5625 7.99998 1.5625C7.60764 1.5625 7.31248 1.8688 7.31248 2.21875C7.31248 2.5687 7.60764 2.875 7.99998 2.875C8.39233 2.875 8.68748 2.5687 8.68748 2.21875ZM9.68748 2.21875C9.68748 3.14596 8.91931 3.875 7.99998 3.875C7.08066 3.875 6.31248 3.14596 6.31248 2.21875C6.31248 1.29154 7.08066 0.5625 7.99998 0.5625C8.91931 0.5625 9.68748 1.29154 9.68748 2.21875Z" fill="white"/>
</svg>
