<svg width="16" height="16" viewBox="0 0 16 16" fill="none" xmlns="http://www.w3.org/2000/svg">
<path d="M13.6859 3.97735L12.9685 12.9493C12.8646 14.2486 11.7799 15.25 10.4764 15.25H5.52318C4.21994 15.25 3.13532 14.2488 3.03118 12.9498L2.31408 4.00445L3.3109 3.92456L4.02795 12.8699C4.09043 13.6493 4.74124 14.25 5.52318 14.25H10.4764C11.2585 14.25 11.9093 13.6491 11.9717 12.8696L12.6891 3.89764L13.6859 3.97735Z" fill="white"/>
<path d="M14.5 3.4375L14.5258 3.43817C14.7899 3.45157 15 3.66999 15 3.9375C15 4.205 14.7899 4.42342 14.5258 4.43682L14.5 4.4375H1.5C1.22386 4.4375 1 4.21364 1 3.9375C1 3.66135 1.22386 3.4375 1.5 3.4375H14.5Z" fill="white"/>
<path d="M10.125 2.75C10.125 2.19772 9.6773 1.75 9.12502 1.75H6.87502C6.32273 1.75 5.87502 2.19772 5.87502 2.75V3.9375H4.87502V2.75C4.87502 1.64543 5.77045 0.75 6.87502 0.75H9.12502C10.2296 0.75 11.125 1.64543 11.125 2.75V3.9375H10.125V2.75Z" fill="white"/>
<path d="M8.5 12.125L8.49933 12.1508C8.48592 12.4149 8.2675 12.625 8 12.625C7.7325 12.625 7.51408 12.4149 7.50067 12.1508L7.5 12.125L7.5 6.49999C7.5 6.22385 7.72386 5.99999 8 5.99999C8.27614 5.99999 8.5 6.22385 8.5 6.49999L8.5 12.125Z" fill="white"/>
<path d="M11.1248 6.51306L11.1235 6.53875L10.686 12.1638L10.6833 12.1894C10.6495 12.4517 10.4154 12.6442 10.1487 12.6235C9.88202 12.6027 9.68053 12.3764 9.68766 12.1119L9.68901 12.0862L10.1265 6.46124L10.1291 6.4356C10.163 6.17326 10.397 5.98078 10.6637 6.00152C10.9304 6.02226 11.1319 6.24863 11.1248 6.51306Z" fill="white"/>
<path d="M4.8752 6.51306L4.87654 6.53875L5.31404 12.1638L5.31667 12.1894C5.35051 12.4517 5.58458 12.6442 5.85127 12.6235C6.11798 12.6027 6.31947 12.3764 6.31233 12.1119L6.31099 12.0862L5.87349 6.46124L5.87087 6.4356C5.83702 6.17326 5.60296 5.98078 5.33626 6.00152C5.06955 6.02226 4.86807 6.24863 4.8752 6.51306Z" fill="white"/>
</svg>
