<svg width="32" height="32" viewBox="0 0 32 32" fill="none" xmlns="http://www.w3.org/2000/svg">
<path d="M7.90287 24.802C4.59293 32.1319 11.6428 33.9719 16.8427 29.6819C18.3727 34.4918 24.1026 30.9019 26.1625 27.172C30.6924 18.9521 28.8625 10.5723 28.3925 8.84234C25.1725 -2.94744 9.07284 -2.96744 6.3029 8.90234C5.65291 10.9823 5.64291 13.3422 5.28292 15.7922C5.10292 17.0322 4.96292 17.8222 4.49293 19.1221C4.21294 19.8721 3.84294 20.5321 3.24296 21.6521C2.32297 23.3921 2.71297 26.742 7.47288 25.002L7.92287 24.802H7.90287Z" fill="white"/>
<path d="M17.4627 13.9523C16.1427 13.9523 15.9427 12.3724 15.9427 11.4324C15.9427 10.5824 16.0927 9.91241 16.3827 9.48242C16.6327 9.10243 17.0027 8.91243 17.4627 8.91243C17.9227 8.91243 18.3227 9.10243 18.6027 9.49242C18.9227 9.93241 19.0927 10.6024 19.0927 11.4324C19.0927 13.0124 18.4827 13.9523 17.4727 13.9523H17.4627Z" fill="black"/>
<path d="M22.8925 13.9523C21.5725 13.9523 21.3725 12.3724 21.3725 11.4324C21.3725 10.5824 21.5225 9.91241 21.8125 9.48242C22.0625 9.10243 22.4325 8.91243 22.8925 8.91243C23.3525 8.91243 23.7525 9.10243 24.0325 9.49242C24.3525 9.93241 24.5225 10.6024 24.5225 11.4324C24.5225 13.0124 23.9125 13.9523 22.9025 13.9523H22.8925Z" fill="black"/>
</svg>
