<svg width="63" height="20" viewBox="0 0 63 20" fill="none" xmlns="http://www.w3.org/2000/svg">
<path d="M16.1572 18.7346C15.7359 19.5379 14.9269 19.9989 13.9371 19.9989C12.6634 19.9989 12.0588 19.394 11.5422 18.4857L7.46805 11.4786L4.92525 13.9396V16.9935C4.92525 18.3649 4.49279 19.9989 2.43371 19.9989C0.374618 19.9989 0 18.3642 0 16.9935V3.00501C0 1.63433 0.421938 0.000289917 2.43371 0.000289917C4.44547 0.000289917 4.92525 1.63433 4.92525 3.00501V7.07567V8.10349C4.92525 8.10349 7.03691 6.04454 7.63302 5.44885L11.2819 1.65929C11.3917 1.54633 11.4968 1.43533 11.5994 1.32762C12.3848 0.500091 12.8586 0.000289917 13.9365 0.000289917C14.831 0.000289917 15.6176 0.512571 15.9403 1.30595C16.3045 2.20112 16.0054 3.23882 15.1412 4.08014L10.7141 8.34848L15.8707 15.7752C16.5161 16.7065 16.6258 17.8408 16.1566 18.7353L16.1572 18.7346Z" fill="#141217"/>
<path d="M24.1208 16.9936C24.1208 17.9925 23.896 18.757 23.4523 19.266C23.0284 19.7527 22.3955 19.9996 21.572 19.9996C21.1639 19.9996 20.8425 19.9484 20.5901 19.8426L20.5698 19.8347C20.205 19.6988 19.9257 19.5037 19.7403 19.2561L19.7167 19.2266C19.2947 18.7353 19.0811 17.984 19.0811 16.9936V3.00504C19.0811 2.00281 19.3013 1.23702 19.7351 0.728678C20.1478 0.245296 20.7656 0.000320435 21.572 0.000320435C22.3784 0.000320435 23.0284 0.247267 23.4523 0.733276C23.896 1.24227 24.1208 2.00675 24.1208 3.00504V16.9936Z" fill="#141217"/>
<path d="M36.1624 0C38.3411 1.26723e-06 40.1436 0.477483 41.3753 1.37988C42.7755 2.40701 43.4855 4.00492 43.4856 6.12988C43.4856 8.57438 42.5384 10.3121 40.6712 11.292V11.293L40.0989 11.5928L42.8802 15.7021C43.5314 16.6675 43.633 17.8371 43.1448 18.7559C42.7242 19.5459 41.9356 19.9989 40.9807 19.999C40.0771 19.999 39.3308 19.7386 38.6263 18.4678L35.0921 12.2314H32.4407V16.9473C32.4407 17.9633 32.2173 18.7416 31.7776 19.2598C31.3609 19.7509 30.7402 20 29.9319 20C29.1236 20 28.5344 19.7526 28.1282 19.2646C27.6977 18.7471 27.4798 17.9672 27.4798 16.9473V3.05273C27.4798 2.03277 27.6977 1.25354 28.1282 0.735352C28.5344 0.247383 29.1413 0 29.9319 0H36.1624ZM32.4339 8.38281H35.8167C38.0936 8.38264 38.4329 7.00225 38.4329 6.17871C38.4328 5.49457 38.2244 4.95378 37.8138 4.57031C37.3643 4.15079 36.7109 3.94733 35.8167 3.94727H32.4339V8.38281Z" fill="#141217"/>
<path d="M54.1496 0.000320435C55.3996 0.000320435 56.5781 0.226615 57.6506 0.673172C58.7173 1.11715 59.6569 1.76935 60.4416 2.61067C62.1156 4.40628 63.0002 6.9618 63.0002 9.99934C63.0001 13.0367 62.1162 15.5925 60.4416 17.388L60.1399 17.6947C59.4198 18.3896 58.5841 18.9374 57.6506 19.3265C56.578 19.7731 55.3996 19.9993 54.1496 19.9993C51.6338 19.9993 49.498 19.12 47.9719 17.4564C46.3558 15.6943 45.5012 13.115 45.5012 9.99934C45.5012 6.88376 46.3558 4.30535 47.9719 2.54329C49.4973 0.879769 51.6338 0.000321405 54.1496 0.000320435ZM54.2121 3.96809C52.9312 3.96809 51.8796 4.52088 51.1711 5.56575C50.4738 6.59357 50.1203 8.07309 50.1203 9.96321C50.1203 11.8534 50.4735 13.3181 51.1701 14.3499C51.8813 15.4027 52.9332 15.9593 54.2121 15.9593C55.4909 15.9592 56.581 15.4084 57.342 14.3675C58.1142 13.3121 58.5051 11.8297 58.5051 9.96321C58.5051 8.09673 58.1133 6.60029 57.341 5.54817C56.582 4.51518 55.5008 3.9682 54.2121 3.96809Z" fill="#141217"/>
</svg>
